<svg height="1678" width="720" xmlns="http://www.w3.org/2000/svg">
<rect height="1678" fill="#555" width="720"></rect>
<text fill="#7f7" font-family="Courier New" font-size="12" xml:space="preserve">
<tspan x="10" y="26">2018-02-14 09:54:19 +0700</tspan>

<tspan x="10" y="42">apidocRawCreate</tspan>

<tspan x="10" y="58"></tspan>

<tspan x="10" y="74">2018-02-14 09:43:56 +0700</tspan>

<tspan x="10" y="90">apidocRawCreate</tspan>

<tspan x="10" y="106"></tspan>

<tspan x="10" y="122">2018-02-14 09:43:02 +0700</tspan>

<tspan x="10" y="138">apidocRawCreate</tspan>

<tspan x="10" y="154"></tspan>

<tspan x="10" y="170">2018-02-14 09:05:25 +0700</tspan>

<tspan x="10" y="186">apidocRawCreate</tspan>

<tspan x="10" y="202"></tspan>

<tspan x="10" y="218">2018-02-14 08:16:35 +0700</tspan>

<tspan x="10" y="234">update</tspan>

<tspan x="10" y="250"></tspan>

<tspan x="10" y="266">2018-02-13 21:07:14 +0700</tspan>

<tspan x="10" y="282">update</tspan>

<tspan x="10" y="298"></tspan>

<tspan x="10" y="314">2018-02-13 21:02:19 +0700</tspan>

<tspan x="10" y="330">update</tspan>

<tspan x="10" y="346"></tspan>

<tspan x="10" y="362">2018-02-13 20:07:49 +0700</tspan>

<tspan x="10" y="378">update</tspan>

<tspan x="10" y="394"></tspan>

<tspan x="10" y="410">2018-02-13 19:45:28 +0700</tspan>

<tspan x="10" y="426">update</tspan>

<tspan x="10" y="442"></tspan>

<tspan x="10" y="458">2018-02-13 17:56:36 +0700</tspan>

<tspan x="10" y="474">update</tspan>

<tspan x="10" y="490"></tspan>

<tspan x="10" y="506">2018-02-13 17:24:40 +0700</tspan>

<tspan x="10" y="522">slushy</tspan>

<tspan x="10" y="538"></tspan>

<tspan x="10" y="554">2018-02-13 15:59:21 +0700</tspan>

<tspan x="10" y="570">slushy</tspan>

<tspan x="10" y="586"></tspan>

<tspan x="10" y="602">2018-02-13 09:08:03 +0700</tspan>

<tspan x="10" y="618">npm.script</tspan>

<tspan x="10" y="634"></tspan>

<tspan x="10" y="650">2018-02-13 09:05:59 +0700</tspan>

<tspan x="10" y="666">npm-script</tspan>

<tspan x="10" y="682"></tspan>

<tspan x="10" y="698">2018-02-13 08:34:14 +0700</tspan>

<tspan x="10" y="714">update</tspan>

<tspan x="10" y="730"></tspan>

<tspan x="10" y="746">2018-01-20 14:25:41 +0700</tspan>

<tspan x="10" y="762">- ignore env var $npm_package_swggAll and $npm_package_swggTags0 if package-name has -all sufix</tspan>

<tspan x="10" y="778"></tspan>

<tspan x="10" y="794">2018-01-19 14:07:03 +0700</tspan>

<tspan x="10" y="810">- fix failed semanticRequired validation-error in ui</tspan>

<tspan x="10" y="826">- rename package-name swgg-facebook -&gt; swgg-facebook-all</tspan>

<tspan x="10" y="842">- remove unused datatable link</tspan>

<tspan x="10" y="858"></tspan>

<tspan x="10" y="874">2018-01-19 14:06:12 +0700</tspan>

<tspan x="10" y="890">- fix failed semanticRequired validation-error in ui</tspan>

<tspan x="10" y="906">- rename package-name swgg-facebook -&gt; swgg-facebook-all</tspan>

<tspan x="10" y="922">- remove unused datatable link</tspan>

<tspan x="10" y="938"></tspan>

<tspan x="10" y="954">2018-01-19 13:57:23 +0700</tspan>

<tspan x="10" y="970">update</tspan>

<tspan x="10" y="986"></tspan>

<tspan x="10" y="1002">2018-01-15 23:21:00 +0700</tspan>

<tspan x="10" y="1018">minor</tspan>

<tspan x="10" y="1034"></tspan>

<tspan x="10" y="1050">2017-12-12 19:21:15 +0700</tspan>

<tspan x="10" y="1066">- sync with $npm_package_githubRepoAlias</tspan>

<tspan x="10" y="1082"></tspan>

<tspan x="10" y="1098">2017-11-22 17:44:06 +0800</tspan>

<tspan x="10" y="1114">update.desc</tspan>

<tspan x="10" y="1130"></tspan>

<tspan x="10" y="1146">2017-11-22 17:40:38 +0800</tspan>

<tspan x="10" y="1162">update.desc</tspan>

<tspan x="10" y="1178"></tspan>

<tspan x="10" y="1194">2017-11-22 17:25:27 +0800</tspan>

<tspan x="10" y="1210">- add api POST /{version}/{test-user-id}/friends/{test-user-id2}</tspan>

<tspan x="10" y="1226"></tspan>

<tspan x="10" y="1242">2017-11-22 17:02:53 +0800</tspan>

<tspan x="10" y="1258">update.doc</tspan>

<tspan x="10" y="1274"></tspan>

<tspan x="10" y="1290">2017-11-08 19:01:13 +0800</tspan>

<tspan x="10" y="1306">replace summary with description</tspan>

<tspan x="10" y="1322"></tspan>

<tspan x="10" y="1338">2017-11-08 17:57:39 +0800</tspan>

<tspan x="10" y="1354">buildapp</tspan>

<tspan x="10" y="1370"></tspan>

<tspan x="10" y="1386">2017-11-08 01:45:21 +0800</tspan>

<tspan x="10" y="1402">[npm publish] - npm publish 2017.11.6</tspan>

<tspan x="10" y="1418">- revert from 2-space-indent to 4-space-indent</tspan>

<tspan x="10" y="1434">- add api DELETE /{facebook_graph_version}/{test-user-id}#requireTestUserId</tspan>

<tspan x="10" y="1450">- add api POST /{facebook_graph_version}/{test-user-id}#requireTestUserId</tspan>

<tspan x="10" y="1466">- add api POST /{facebook_graph_version}/{achievement-id}#requireAchievementId</tspan>

<tspan x="10" y="1482">- add api GET /{facebook_graph_version}/{user-id}/achievements</tspan>

<tspan x="10" y="1498"></tspan>

<tspan x="10" y="1514">2017-10-19 23:57:10 +0800</tspan>

<tspan x="10" y="1530">revert to 4-space</tspan>

<tspan x="10" y="1546"></tspan>

<tspan x="10" y="1562">2017-10-19 17:43:33 +0800</tspan>

<tspan x="10" y="1578">[npm publish] - npm publish 2017.10.18</tspan>

<tspan x="10" y="1594">- initial package</tspan>

<tspan x="10" y="1610">- styleguide - change indent from 4-space -&gt; 2-space</tspan>

<tspan x="10" y="1626"></tspan>

<tspan x="10" y="1642">2014-03-26 02:31:50 +0700</tspan>

<tspan x="10" y="1658">add blank README.md</tspan>

</text>
</svg>
