<svg height="606" width="720" xmlns="http://www.w3.org/2000/svg">
<rect height="606" fill="#555" width="720"></rect>
<text fill="#7f7" font-family="Courier New" font-size="12" xml:space="preserve">
<tspan x="10" y="26"></tspan>

<tspan x="10" y="42">[MODE_BUILD=buildApp] - 2018-02-14T02:58:58.523Z - npm-testing /home/travis/build/kaizhu256/node\</tspan>
<tspan x="10" y="58">-swgg-facebook-all</tspan>

<tspan x="10" y="74"></tspan>

<tspan x="10" y="90"></tspan>

<tspan x="10" y="106">buildApp - merged test-report from file /home/travis/build/kaizhu256/node-swgg-facebook-all/tmp/\</tspan>
<tspan x="10" y="122">build/test-report.json</tspan>

<tspan x="10" y="138">override assets assets.swgg.swagger.json</tspan>

<tspan x="10" y="154">&gt; server listening on http-port 52212</tspan>

<tspan x="10" y="170">&gt; server listening on http-port 57804</tspan>

<tspan x="10" y="186">[node test-case 1 of 1 passed] - testCase_buildApp_default</tspan>

<tspan x="10" y="202"></tspan>

<tspan x="10" y="218">buildApp - merged test-report from file /home/travis/build/kaizhu256/node-swgg-facebook-all/tmp/\</tspan>
<tspan x="10" y="234">build/test-report.json</tspan>

<tspan x="10" y="250"></tspan>

<tspan x="10" y="266">-------------------------------------------------------</tspan>

<tspan x="10" y="282">| test-report - buildApidoc - node - linux v6.13.0 - 2018-02-14T02:58:04.875Z</tspan>

<tspan x="10" y="298">|   59556 ms            0 failed        1 passed      |</tspan>

<tspan x="10" y="314">-------------------------------------------------------</tspan>

<tspan x="10" y="330">| test-report - npmTest - browser - /index.default.html - Mozilla/5.0 (X11; Linux x86_64) AppleW\</tspan>
<tspan x="10" y="346">ebKit/537.36 (KHTML, like Gecko) Chrome/56.0.2924.87 Electron/1.6.15 Safari/537.36 - 2018-02-14T\</tspan>
<tspan x="10" y="362">02:57:46.878Z</tspan>

<tspan x="10" y="378">|      13 ms            0 failed        8 passed      |</tspan>

<tspan x="10" y="394">-------------------------------------------------------</tspan>

<tspan x="10" y="410">| test-report - npmTest - node - linux v6.13.0 - 2018-02-14T02:57:44.885Z</tspan>

<tspan x="10" y="426">|   16405 ms            0 failed        8 passed      |</tspan>

<tspan x="10" y="442">-------------------------------------------------------</tspan>

<tspan x="10" y="458"></tspan>

<tspan x="10" y="474">created test-report file /home/travis/build/kaizhu256/node-swgg-facebook-all/tmp/build/test-repo\</tspan>
<tspan x="10" y="490">rt.html</tspan>

<tspan x="10" y="506"></tspan>

<tspan x="10" y="522"></tspan>

<tspan x="10" y="538">buildApp - 0 failed tests</tspan>

<tspan x="10" y="554"></tspan>

<tspan x="10" y="570"></tspan>

<tspan x="10" y="586">[MODE_BUILD=buildApp] - 2018-02-14T02:59:06.263Z - EXIT_CODE - 0</tspan>

</text>
</svg>
